<mxfile host="Electron" agent="Mozilla/5.0 (Windows NT 10.0; Win64; x64) AppleWebKit/537.36 (KHTML, like Gecko) draw.io/26.0.4 Chrome/128.0.6613.186 Electron/32.2.5 Safari/537.36" version="26.0.4">
  <diagram name="第 1 页" id="QgN-eds3L-QJroVfCRzS">
    <mxGraphModel dx="558" dy="383" grid="1" gridSize="10" guides="1" tooltips="1" connect="1" arrows="1" fold="1" page="1" pageScale="1" pageWidth="827" pageHeight="1169" math="1" shadow="0">
      <root>
        <mxCell id="0" />
        <mxCell id="1" parent="0" />
        <mxCell id="3nSq3ngqs_oeK1MZ0xtk-1" value="" style="shape=image;verticalLabelPosition=bottom;labelBackgroundColor=default;verticalAlign=top;aspect=fixed;imageAspect=0;image=data:image/svg+xml,PHN2ZyB4bWxuczp4bGluaz0iaHR0cDovL3d3dy53My5vcmcvMTk5OS94bGluayIgeG1sbnM9Imh0dHA6Ly93d3cudzMub3JnLzIwMDAvc3ZnIiBoZWlnaHQ9IjIwMCIgd2lkdGg9IjIwMCIgdmVyc2lvbj0iMS4xIiB2aWV3Qm94PSIwIDAgMTAyNCAxMDI0IiBjbGFzcz0iaWNvbiI+PHBhdGggZmlsbD0iIzAwMDAwMCIgZD0iTTQ1OC42NCAxMTkuMDcyYTg0LjE3NiA4NC4xNzYgMCAwIDEgMTA2LjcyIDBsMzY2LjkxMiAzMDAuNGEzMiAzMiAwIDAgMS00MC41NDQgNDkuNTJMNTI0LjgxNiAxNjguNTkyYTIwLjE3NiAyMC4xNzYgMCAwIDAtMjUuNjMyIDBMMTMyLjI3MiA0NjguOTkyYTMyIDMyIDAgMSAxLTQwLjU0NC00OS41Mkw0NTguNjQgMTE5LjA3MnpNMzA0LjMyIDQxNS4xODRjMC0yNy4yIDIyLTQ5LjU2OCA0OS40NzItNDkuNTY4aDk2LjA0OGE0OS41MDQgNDkuNTA0IDAgMCAxIDQ5LjQ1NiA0OS41Njh2OTYuNTQ0YzAgMjcuMi0yMS45ODQgNDkuNTUyLTQ5LjQ1NiA0OS41NTJIMzUzLjc2YTQ5LjUwNCA0OS41MDQgMCAwIDEtNDkuNDcyLTQ5LjU1MlY0MTUuMnogbTY0IDE0LjQzMnY2Ny42OGg2Ni45NzZ2LTY3LjY4SDM2OC4zMnogbS0xNjIuOTc2IDM2Ljk2YTMyIDMyIDAgMCAxIDMyIDMydjMwNy4yYzAgMjEuMjggMTcuMTIgMzguMjI0IDM3Ljg1NiAzOC4yMjRoNDcxLjUyYTM4LjAzMiAzOC4wMzIgMCAwIDAgMzcuODQtMzguMjI0di0zMDcuMmEzMiAzMiAwIDEgMSA2NCAwdjMwNy4yYzAgNTYuMzA0LTQ1LjQ0IDEwMi4yMjQtMTAxLjg1NiAxMDIuMjI0SDI3NS4yYy01Ni40IDAtMTAxLjg1Ni00NS45Mi0xMDEuODU2LTEwMi4yMjR2LTMwNy4yYTMyIDMyIDAgMCAxIDMyLTMyeiBtOTguOTc2IDE2OC4wNDhjMC0yNy4yMTYgMjItNDkuNTY4IDQ5LjQ3Mi00OS41NjhoOTYuMDQ4YTQ5LjUwNCA0OS41MDQgMCAwIDEgNDkuNDU2IDQ5LjU2OHY5Ni41NDRjMCAyNy4yLTIxLjk4NCA0OS41NTItNDkuNDU2IDQ5LjU1MkgzNTMuNzZhNDkuNTA0IDQ5LjUwNCAwIDAgMS00OS40NzItNDkuNTUydi05Ni41NDR6IG02NCAxNC40MzJ2NjcuNjhoNjYuOTc2di02Ny42OEgzNjguMzJ6IG0xNTQuMjg4LTE0LjQzMmMwLTI3LjIxNiAyMS45ODQtNDkuNTY4IDQ5LjQ3Mi00OS41NjhoOTYuMDQ4YTQ5LjUwNCA0OS41MDQgMCAwIDEgNDkuNDU2IDQ5LjU2OHY5Ni41NDRjMCAyNy4yLTIxLjk4NCA0OS41NTItNDkuNDU2IDQ5LjU1MmgtOTYuMDQ4YTQ5LjUwNCA0OS41MDQgMCAwIDEtNDkuNDcyLTQ5LjU1MnYtOTYuNTQ0eiBtNjQgMTQuNDMydjY3LjY4aDY2Ljk3NnYtNjcuNjhoLTY2Ljk3NnoiLz48L3N2Zz4=;" vertex="1" parent="1">
          <mxGeometry x="128.01724137931035" y="698.125" width="32.068965517241374" height="32.068965517241374" as="geometry" />
        </mxCell>
        <mxCell id="3nSq3ngqs_oeK1MZ0xtk-2" value="" style="shape=image;verticalLabelPosition=bottom;labelBackgroundColor=default;verticalAlign=top;aspect=fixed;imageAspect=0;image=data:image/png,iVBORw0KGgoAAAANSUhEUgAAAMgAAADICAYAAACtWK6eAAAAAXNSR0IArs4c6QAAGRBJREFUeF7tXQuYHFWVPqdmHHYIIvHNoosiCoiAroLgii+QIAr4YNiVbFzIdJ07MyFgeAgKLkF8omg0JHSdamIQUBHFF4qgiKsuLiquKKu7q8sbFGGJKBBCuvts39jJToaZ7qrqqlu3qu79vv4mX/o8/3P/rqpb94HgmkPAITAnAuiwcQg4BOZGwBHE9Q6HQA8EHEFc93AIOIK4PuAQSIaAu4Ikw81pVQQBR5CKFNqlmQwBR5BkuDmtiiDgCFKRQrs0kyHgCJIMN6dVEQQcQSpSaJdmMgQcQZLhVlktIpIskheR74Vh+NosbA9i0xFkEPQqqOsIUsGiu5SjI+AIEh0rJ1lBBBxBKlh0l3J0BBxBomPlJAuEwNTU1LNXr15956AhO4IMiqDTtxIBIrpQRH4QhuHaQQJ0BBkEPadrJQKTk5O7tFqt/wGA2xDxzUEQ3JQ0UEeQpMg5PWsRIKKVAHC8DlBEvhmG4RuTBusIkhQ5p2clAkS0OwD8ekZwH2DmM5ME7AiSBLUS6RDRm5n5K2VJSSm1QkROnJlPu90eazQaX4ybpyNIXMRKIK9JAQAv3pwKIjaDIHh/0VOr1Wp7e5436/OGiDwsIm9pNBrfjpOnI0gctEogq5TaR88DAoAdpqVzyzbbbPOSlStX/qnIKfq+fwEiTvTI4W4AeAUz3xE1T0eQqEiVQI6IngQAmhxbrh7T0jqRmT9V1DSJ6G8B4MYI8f+KmfeMILdJxBEkKlIlkFNKXaFvM+ZI5efM/JKiphnh6jE9tR8x8yui5OoIEgWlEsgQ0ccBYFmvVNrt9kGNRuO7RUu3e9uorx5DUWNHxEuDIPjHfvKOIP0QKsH3RHQCAHwyQiqJh0Mj2M5MhIjOB4AlCRyczczLe+k5giRAtUgqvu8fgYhfjRjz9cz8dxFlrRCbmJh4UavVuhERRxIG1JMkjiAJUS2CWnfY8zoAeHLUeEdGRnY6//zz74kqn7ccEekro75CJm6IqOdtnc7M98804giSGFa7FZcuXbr9hg0bNDn06E7khoiLgyD4dGSFHAVrtdoenuf9FAC2TSGM/xKRc8MwXDPdliNICsjaaIKIvgQAb00Q2+eZ+e0J9IyrKKXOE5GTUnZ8DSLe2Gq1rvE872IAeFbK9jeZc2vSs0A1ok0i+hgAnBxRfKbYA8z8lIS6xtSUUs8XET1y9URjTlN05AiSIphxTBGRnsWqZ7Mmbs1mc6c1a9ZY/RxCROcCwKmJk8xZ0REkhwL4vv8mRPx6Cq4PZOYfpmAnExPd9R766jF9ukwmvrIy6giSFbJz2NXDne12Wz+UPzUF18cy80Up2MnEBBF9CABOz8S4IaOOIIaA1m4WLly4/bx5864FgJel4RYR3xcEwVlp2Erbxvj4+M5DQ0P66mH9c1Kv3B1B0u4ZPez5vn85Ih6VlksRuTQMw77TMNLyF8cOEelp+WfE0bFR1hHEUFV83/8oIp6SsrvIk/lS9tvTXK1We1b3vcczTPrNwpcjSBaozrCplJoSkVUZuPoDM1vXCYlIz5uy8tYvbg0cQeIiFlNeKXWYiHwjplpkcWa2ah/jJUuWPGXjxo0/z+rFXWRgUhJ0BEkJyNnMdJ459kREPS396Vm5abfbuzQajVuzsh/XLhHpqfp6yn4pmiNIRmVcvHjxE4eGhr6DiPtl5EKb/V273T600Wj8IkMfsUx31tHrq8c+sZQsFnYEyag4SqnLROTojMxvMttut49pNBqfy9JHHNtKqXeIiLXvZeLkslnWESQJan10iOgjAPCuDExvMSki7w/D8L1Z+ohrWyl1rYi8Lq6ezfKOIClXh4gmO88cq1M2u5U5EflqGIZ6SyBrWorTZ6zJSQfiCJJiOXzff0PnmeObKZqczdRjAPAqZr4hYz+xzBPRFwBgLJZSAYQdQVIqUnfESk8jyfq9xPLO0O7ZKYWdihml1AEicn0qxiwz4giSQkGmpqa2a7Va3xaR/VMw18vEDevWrXvV5Zdfrq8i1rSYW/lYE3eUQBxBoqDUR4aI9EjSP6RgqqeJ7hEBUTd2yDqcTfZ9339BJy49tDtqxKFhJ44gAwJucEr315n5iAHDTV29LJMS5wLGEWSALkNECgDqA5iIrOp53uH1ev3KyAoGBMs2rWQ2yBxBEnYkpdShInJVQvW4arZePUo1rcQRJG63nENeKfVCEfkOAOyYksmeZmy8euiAyzatxBEkhd6sR6yazeY1AHBACuaimLi2s+784CiCJmXKOK3EESSFHkRElwLAMSmYimrCZ+ZGVGFTcmWcVuIIMmDvIaIPAMB7BjQTR/3W9evX73XxxRc/HEcpa9myTitxBBmg51BnmVznmSMYwEQS1Q8ys3Xruss6rcQRJEkX7Sy6MDxitSVKz/P2qtfrNycMOxO1Mk8rcQRJ0GWmpqb2aDab+kDJnRKoD6Ji5cN5maeVzFEsEZGxMAz1HsrWNCvWWZ9yyinzHnzwwasRMY+zOM5g5g9aU5EKTCvpgfVGRBwLgsCaaT5WEMT3/UsQcWFOnXR/C6e0l2Kvq4T1fBQAjmLmzDbgiBNX7gRRSp0jImfGCTotWRH5bRiGz0/LXhp2qjCtJAJOD3UnjOplDbm2XAni+76PiJwXAiKyMgzDgU5jSjv2su1WMgA+fwSAgzoTR382gI2BVXMjiO/7CxDxWwNnMIABETkyDMOvDWAiddUqTCuJAdr97XZ7vzy3W8qFIN2jwq4GgGfHACt10fXr129n08vBzilYe3VOwbJma6HUAU9m8N7HHnts97Vr1+orivFmnCCLFi2at+22214lIgcaz3Zrh1cx82E5x7CVeyLSU2v0FBvXtkbg7s40oEyOfusHtHGCENFnAGBRv8Cy/h4RTwiCYKCTp9KO0eCisLRDN2HvdmZ+jglH030YJYjv++cgYi4jVjOBHR4efv7q1at/axrwXv6ISC/UeqNNMVkWyy3M/DyTMRkjSN4jVjNAze2S3au4vu9fhoiZ7hJpsnNl5OtmZtbPakaaEYIQ0SGddR36odyKhohfDoIgyZHQmcaf0dkmmcack/HvM/OrTfjOnCBEtDsA6OHcnU0kFMWHiLwnDEN9rp9Vzff9pYj4KauCsjQYU2vYMyVI52jibQFA74BohO1Ra4mIBwdBkPtb2pnx1mq1Iz3P+0rUPKouZ4IkWRNkLQD8k22FbDab269Zs+bPtsU1OTk5v9VqPWBbXDbHkzVJMiMIEb0PAKzaFb1b6LuYOdcXlL06HBHpmazW7ctVVZJkQhAiqnXWdYSWgno5M1s7UqSUOkpELrcUO2vDyupKkjpBbBuxmqWiJzHzJ6yt9F+2+fk1AOjBDddiIJAFSVIlSHfESj+UPzdGXkZFEfEVQRD8yKjTmM7KdHptzNQHFk+bJKkRpDtipd8Ev3bgLDM0YNtptbOletxxxz3tCU94wo8BwPjUigyhN2Y6TZKkSRArR6xmVkVE9GzZyTAMrT5ng4hOBYBzjfWqkjlKiySpEEQpdbaI/HORMBaRU8Mw/JitMetZz6Ojo/p0qz1tjbEAcQ08Y3tggiilxkXEuh0JoxRPTzlptVon57kgp1ecvu9PIeKqKLk4mTkR+Dwzvz0pPgMRRCn1+s5pT3oaiZc0AAv07m2328tsOuZ5Oia+7/8wp91eLChNaiEEzDyRxFpigkxOTu7WarX0iNUuSRzbpoOIn3zkkUfOsGmFocZIKXW4iFi1LNi22kWM51xmPi2i7BaxRARZtmzZ6COPPHJl2c7qBoAbEPEM2+ZpEZF+6apfvro2GAKx90BLRBCl1KdF5NjBYrVa+93M/GFbIhwfH991aGjohwZO9rUl5SzjOJ6ZIz/XxSZIEUesEqL9JWY+KqFu6mpuO6D0IEXERUEQXBLFYiyCFHnEKgoYs8jc3m63X95oNO5NqJ+qmu/71yHia1I1WlFjiHhEEARf75d+ZILUarXXe56nH8qH+xkt2/eI+OogCL6fd1557X6fd95Z+fc875X1ev1fe9mPRJDFixfvNjw8rKeR7JpVsLbbHRoa2ueCCy7Ifc8qpdQqEZmyHa+ixDc8PLzj6tWrfz9XvH0JMjY2NrrDDjtciYivK0rSWcXZarWec+GFF96elf0odsfHx3fuPrDnsk9UlBiLJtNrfl5fghDRGgA4rmhJZxjvDsz8YIb2+5omouMBwKo9vfoGbbfArcw86/u8ngRx065nr6oNM4KJ6AcA8Eq7+12horuGmRfMjHhOgvi+vxgRLyxUiuaCvZeZn2nO3eM9EdEYAHwhzxhK6HsVM+ur85Y2K0E6838ORkR9gMlICUFIK6VZf3HSMh7FDhF9GQDeHEXWyURGYKuXxI8jiO/7L0BEPWJl1cEykdMzKKjnbwVB8E6DLrdyRUR6cdp38/JfVr8i8o4wDC/W+W1FkGOPPfavRkZGNDkOKmvyGeT1YWZ+dwZ2I5l087QiwRRbyPO8g+r1+ne3IogbsYqN42aFZcy8IrH2AIrd22F9OrBr6SOwxxaCuBGrgdD9s35PFATBTweyklCZiLTflyZUL5La2QMEKzPvmGbYmv79ln9vIogbsRoA9v9XHXh5Z9IoiEhv0Kc36it7O5uZl5tMEruXaP3csY1JxyX1FXu9QRo4VOjoNvME6Rz79d9uxCqNbrrJRqt7q2V8YiMRXQUAh6aWiZ2Glnde0g5ymxU7KyQifb/lWnoIfI2Zj0zPXDRLRHR65y7AuiMdokUfWcoRJDJUFgu22+1DGo2G0ZGlWq22v+d5Vu8YmULJcrnFcleQFCo3w8RAW80kDYeI1gHADkn1C6DnriAFKFKkEKMsxolkKIZQBSYw5kaQRwFgqw8irheRLf+HiI+22+1H9d/Nsvp7RHysVw07m8rpdQs7djZAexoAbP7Mi1H3ooquYeZxk8ET0S8B4EUmfRr2ZZ4ghhPU+zydJiLW7BiSZf6e5z23Xq/flqWP6baJ6E4AKPNCKvPPIKaKt9kPdV7Zd64ogWm/efgTkePCMNSbehtpRKSPldvOiLN8nJSfIL7vH42Il+WDr1mviLg2CAIjqzGnpqa2azab1p27mDLilbjF0vv5XpMycLaau42ZjRwmRER6daFeZVjmVgmCvExEflLmKk7PzfO8ver1+s1Z51uRderlv8XqbqP5m6w7jC32ReSdYRh+Mut4KrIupPxXkCVLljxl48aN92fdYSyx/6fOgaFPMhELEd0EAHub8JWjj/ITZPny5d4999zzAAAY6Tg5FlO7PpqZMz/SubtXlrHh5BwxLT9BNLhEpIu5c45Am3D9CWY+yYQjy8+lTxOC8j+DdAny7wDw4jSRs8zWT5h5P1MxKaUuE5GjTfnL0U9lCKJ34rD6uOgBO8GxneHdiwa0EUm9Vqs9w/O8XwPA/EgKxRaqxi2W7/tXIOJbil2rOaO/jpmN7WPs+/4piPjRkmI5M61qEISI9I6Ni8tYVBE5KgzDL5nKzff9mxCx7KNXm+GszC2WPp/8ZFOdyKCfbzDzm0z5831/ESJ+xpQ/C/xU4wri+/6ZiHiOBYCnGgIiHhMEwedSNdrDGBFdDQCHmPJngZ9qEISIlgDA+RYAnmYINzGzsZE5ItLE0ASpUqsMQY7p7KRyackqexozn2sqJyLSt1aLTPmzxE81nkF8338DIurzDsvSHvA8b+96vX63iYQmJyf3brVaempJ1Vo1CKKUOkBEri9LdUVkZRiGJ5jKRyn1URE5xZQ/i/xU5hZrdwDQL7fK0vZn5htMJENEOwKAnonwDBP+LPNRDYJ03/7OebKoZUXpGQ4ifjkIgreairlC+/DOBmk1brGWLl26zYYNG/SM3m1Ndays/LTb7bFGo/HFrOxPt9tdKvAzAPgbE/4s9FGNK4gGvjMD9S4A2MnCIsQJ6afMvG8chUFkq7QjzBw4VYcgSqlfikjR93D6IDOfMUinj6q7dOnS7Tds2HAjAOwaVaeEctUhSBl2AUTEg4MguNZER/R9/yREPM+EL4t9VOMZpHuL9TUAONziYvQLbc7D5/spxv2+e3akvnq8MK5uyeSrQxCl1EX6NNECF7DBzL6J+CuyY0kUKCt1i6V3+jD2ci0K+nFk2u32MY1GI/OJiWNjY0Pz58/XV4994sRXUtlKEUSfNXdWQQv5sOd5u9Tr9T9kHT8RKQCoZ+2nIParc4vl+/6JiJjL0ckpdAZjp0gppb4vIgemEHMZTFTnCqKUeoeIGFm3nXbPMLUZnFLqUBHRZw+69hcEqkMQ3/ePQMSvFrHyprYT9X3/IkQs8kBG2uWtDkFqtdqBnucZPw02hYrdwMz7p2Cnp4nJycndWq3WLwBgJGtfBbJfnWeQiYmJF7XbbX0iUtHaucx8WtZBd45RKfIgRlbwVIcgtVrtWZ7n6RORitbe1Jl/9Y2sgyYivQP+y7L2UzD71SHIokWL5o2OjuoZvYW6hRgeHn7i6tWrH8qyYymlXiUi/5Klj4Larg5BdIGISK8JKdLCn6uY+bCsOxcR6bXtp2btp4D2K0eQ/wSA3QpUqGXMnPm7GyL6FQDsUSBcTIVaLYIopX4kIpmPCKVYvZcys16wlFnzfX8BIn4rMwfFNlwtghCR3tnkDUWpGTNj1rES0fsA4L1Z+ymo/WoRxPf9zyLi2wtSLFPPH2Xf+X6QcleLIEqpVSIyNQhipnQR8YQgCFZm6W9sbGxk/vz5+ijnQo3sZYnJDNvVIggRvR8AjCxZTaGImRdHKXWQiHwnhVjLaiLzGswELvN76l6VKuDZFpkWyL0978vrTPGfzXuuBFFKjYtIoy8sdglkViSl1CUistCudK2KJjPs58oyb4K8VUSMHTaTYqkzKRQR/RsAvDzFOMtmKhPce4GUK0GISJ9TqEdtithSLxYR/S8APLmIYBiKOXXM+8WdK0HGx8dfMjQ0lOmLt34ADPh9agUbHx9/8tDQkCaIa3MjkBreUUHOlSATExPPabfbt0YN1lK5VIpGRPrWSt9iueYI8hcEiOhJIrIOEXMlago9cmCSOIJEqsLAOEfyMk0o945ZovvugYqnlHqhiPxH3AJWTH4gjJNgZQNBfgsAz0sSvIU6iQtIRHrH9tstzMmmkBLjmzQJGwhStpVziYroHtIjdeFE2EayPIeQDQT5NgAcPEgStuki4tuCILgiTlzdeVgb4uhUULaSBPkCAIyVrNi3IuKCIAh+EycvIroXAJ4eR6dispUkSKAHtEpY6Ni7LxKRnqh4UAmxSCulShLkIwDwrrQQtMzOB5j5zKgxKaVWdIa9T4wqX0G5ShLkdAD4UFmL7Xne39frdX0b2bd1jqWrdY6lC/sKVlegkgQp++7ld7bb7QWNRqPvsdfuZWFf5lePIBMTE0e32+3L+kJTYAER+WYYhm/sl0J3r7Bb3IP6nEhVjyBEdAgAXN2v8xT9exH5SBiG+nayZyMivaz3+H5yFf2+egTxfX9fRPxxRQq+kJk/2yvXzkjWKzsjWT+oCB5x06weQaampnZtNpux3hfERdUi+d8BwAJm7rlpNxHpK6q+srq2NQLVIwgRPRUA7qtQT7iGmRf0yrdWq417nle0pcgmSlg9gnQPqdSbWG9vAmEbfCDiyUEQfHyuWKamprbbuHHjzYi4sw3xWhRD9QiiwSei2wCgSp3hbgDYl5n1LdesTSl1koicZ1HntCGUyhLk5xU85ngFMy/r88DunkWq/gyi8/d9/zpEfI0NP1GGY+i5GbY7J+Rx1ajmFUQpdYWIvMVw57TB3RWdEa239bmKFGn3yawxrSZBOqvp1nRW0x2XNbo22heRw8MwvHKu2JYtWzb68MMP69Om9rUxfsMxVZMgvu+fh4gnGQbbFnc/Yeb9egWjlDpSRL5iS8A5xlFNgiilzhSRc3IEPlfXIkJhGM45i7dWq73G87zrcg3SDufVJAgR6blHmR4tYEd954ziXmZ+5lzfOoJsQaaaBPF9fyEiXmJ5J840PBE5KwxDfbrU45ojSMUJopQ6TEQyP3s80x6ejvERZt4405QjiCPIASJyfTp9rLhWELEeBMGkI8icNazmLVatVtvD8zx99HFZW7M7IfN+RLyv3W5v+ttZ93E/ADygt18dGhpa12w2H/I87xZmvmM6EPoKUlZg4ubVaDS+F1dnEPnc98XSwU9NTT2z2WzOOS9pkAQz0tXnCD6us+tO32q1tnR+z/PuGx0dvW/FihV/zCgOZzZjBKwgyNKlS7fZsGHDOgAYzTjf2cxv+XXv/qJv6eD6l37zL7/+TkTu1x1+5cqVboO3HAqVh0srCKITJyI9w/WvUwJBd/q7RETb1J+7EPH3iKg7/KZPs9nc9Gu/du1a9+ueEuhlNGMTQW4GgD0jgPyQ7vCbO77+2yWC/r87RkZG7ly1apU7iCYCkE6kPwI2EUSvw36BiNzped4d+q/+DA0Nbfp3q9W6s9FoaBK45hAwhoA1BDGWsXPkEIiBgCNIDLCcaPUQcASpXs1dxjEQcASJAZYTrR4CjiDVq7nLOAYCjiAxwHKi1UPAEaR6NXcZx0DAESQGWE60egg4glSv5i7jGAg4gsQAy4lWDwFHkOrV3GUcA4H/A6zX5VxP1qcQAAAAAElFTkSuQmCC;" vertex="1" parent="1">
          <mxGeometry x="277.67241379310343" y="698.125" width="32.068965517241374" height="32.068965517241374" as="geometry" />
        </mxCell>
        <mxCell id="3nSq3ngqs_oeK1MZ0xtk-3" value="" style="shape=image;verticalLabelPosition=bottom;labelBackgroundColor=default;verticalAlign=top;aspect=fixed;imageAspect=0;image=data:image/svg+xml,PHN2ZyB4bWxuczp4bGluaz0iaHR0cDovL3d3dy53My5vcmcvMTk5OS94bGluayIgeG1sbnM9Imh0dHA6Ly93d3cudzMub3JnLzIwMDAvc3ZnIiBoZWlnaHQ9IjIwMCIgd2lkdGg9IjIwMCIgdmVyc2lvbj0iMS4xIiB2aWV3Qm94PSIwIDAgMTAyNCAxMDI0IiBjbGFzcz0iaWNvbiI+PHBhdGggZmlsbD0iIzAwMDAwMCIgZD0iTTQ1OC42NCAxMTkuMDcyYTg0LjE3NiA4NC4xNzYgMCAwIDEgMTA2LjcyIDBsMzY2LjkxMiAzMDAuNGEzMiAzMiAwIDAgMS00MC41NDQgNDkuNTJMNTI0LjgxNiAxNjguNTkyYTIwLjE3NiAyMC4xNzYgMCAwIDAtMjUuNjMyIDBMMTMyLjI3MiA0NjguOTkyYTMyIDMyIDAgMSAxLTQwLjU0NC00OS41Mkw0NTguNjQgMTE5LjA3MnpNMzA0LjMyIDQxNS4xODRjMC0yNy4yIDIyLTQ5LjU2OCA0OS40NzItNDkuNTY4aDk2LjA0OGE0OS41MDQgNDkuNTA0IDAgMCAxIDQ5LjQ1NiA0OS41Njh2OTYuNTQ0YzAgMjcuMi0yMS45ODQgNDkuNTUyLTQ5LjQ1NiA0OS41NTJIMzUzLjc2YTQ5LjUwNCA0OS41MDQgMCAwIDEtNDkuNDcyLTQ5LjU1MlY0MTUuMnogbTY0IDE0LjQzMnY2Ny42OGg2Ni45NzZ2LTY3LjY4SDM2OC4zMnogbS0xNjIuOTc2IDM2Ljk2YTMyIDMyIDAgMCAxIDMyIDMydjMwNy4yYzAgMjEuMjggMTcuMTIgMzguMjI0IDM3Ljg1NiAzOC4yMjRoNDcxLjUyYTM4LjAzMiAzOC4wMzIgMCAwIDAgMzcuODQtMzguMjI0di0zMDcuMmEzMiAzMiAwIDEgMSA2NCAwdjMwNy4yYzAgNTYuMzA0LTQ1LjQ0IDEwMi4yMjQtMTAxLjg1NiAxMDIuMjI0SDI3NS4yYy01Ni40IDAtMTAxLjg1Ni00NS45Mi0xMDEuODU2LTEwMi4yMjR2LTMwNy4yYTMyIDMyIDAgMCAxIDMyLTMyeiBtOTguOTc2IDE2OC4wNDhjMC0yNy4yMTYgMjItNDkuNTY4IDQ5LjQ3Mi00OS41NjhoOTYuMDQ4YTQ5LjUwNCA0OS41MDQgMCAwIDEgNDkuNDU2IDQ5LjU2OHY5Ni41NDRjMCAyNy4yLTIxLjk4NCA0OS41NTItNDkuNDU2IDQ5LjU1MkgzNTMuNzZhNDkuNTA0IDQ5LjUwNCAwIDAgMS00OS40NzItNDkuNTUydi05Ni41NDR6IG02NCAxNC40MzJ2NjcuNjhoNjYuOTc2di02Ny42OEgzNjguMzJ6IG0xNTQuMjg4LTE0LjQzMmMwLTI3LjIxNiAyMS45ODQtNDkuNTY4IDQ5LjQ3Mi00OS41NjhoOTYuMDQ4YTQ5LjUwNCA0OS41MDQgMCAwIDEgNDkuNDU2IDQ5LjU2OHY5Ni41NDRjMCAyNy4yLTIxLjk4NCA0OS41NTItNDkuNDU2IDQ5LjU1MmgtOTYuMDQ4YTQ5LjUwNCA0OS41MDQgMCAwIDEtNDkuNDcyLTQ5LjU1MnYtOTYuNTQ0eiBtNjQgMTQuNDMydjY3LjY4aDY2Ljk3NnYtNjcuNjhoLTY2Ljk3NnoiLz48L3N2Zz4=;" vertex="1" parent="1">
          <mxGeometry x="427.3275862068965" y="694.53125" width="34.741379310344826" height="34.741379310344826" as="geometry" />
        </mxCell>
        <mxCell id="3nSq3ngqs_oeK1MZ0xtk-4" value="" style="endArrow=classic;html=1;rounded=0;exitX=0.5;exitY=0;exitDx=0;exitDy=0;entryX=0.323;entryY=-0.012;entryDx=0;entryDy=0;entryPerimeter=0;" edge="1" parent="1" source="3nSq3ngqs_oeK1MZ0xtk-1" target="3nSq3ngqs_oeK1MZ0xtk-2">
          <mxGeometry width="50" height="50" relative="1" as="geometry">
            <mxPoint x="384.56896551724134" y="683.75" as="sourcePoint" />
            <mxPoint x="299.05172413793105" y="683.75" as="targetPoint" />
            <Array as="points">
              <mxPoint x="144.05172413793105" y="568.75" />
              <mxPoint x="288.3620689655172" y="568.75" />
            </Array>
          </mxGeometry>
        </mxCell>
        <mxCell id="3nSq3ngqs_oeK1MZ0xtk-6" value="take off" style="text;html=1;align=center;verticalAlign=middle;whiteSpace=wrap;rounded=0;fontFamily=Times New Roman;" vertex="1" parent="1">
          <mxGeometry x="144.05172413793105" y="611.875" width="53.44827586206896" height="28.75" as="geometry" />
        </mxCell>
        <mxCell id="3nSq3ngqs_oeK1MZ0xtk-7" value="" style="endArrow=classic;html=1;rounded=0;entryX=0.25;entryY=0;entryDx=0;entryDy=0;exitX=0.537;exitY=-0.022;exitDx=0;exitDy=0;exitPerimeter=0;" edge="1" parent="1" source="3nSq3ngqs_oeK1MZ0xtk-2">
          <mxGeometry width="50" height="50" relative="1" as="geometry">
            <mxPoint x="299.05172413793105" y="683.75" as="sourcePoint" />
            <mxPoint x="447.63793103448273" y="695.25" as="targetPoint" />
            <Array as="points">
              <mxPoint x="295.84482758620686" y="568.75" />
              <mxPoint x="448.7068965517241" y="568.75" />
            </Array>
          </mxGeometry>
        </mxCell>
        <mxCell id="3nSq3ngqs_oeK1MZ0xtk-8" value="take off" style="text;html=1;align=center;verticalAlign=middle;whiteSpace=wrap;rounded=0;fontFamily=Times New Roman;" vertex="1" parent="1">
          <mxGeometry x="293.7068965517241" y="611.875" width="53.44827586206896" height="28.75" as="geometry" />
        </mxCell>
        <mxCell id="3nSq3ngqs_oeK1MZ0xtk-9" value="cruise" style="text;html=1;align=center;verticalAlign=middle;whiteSpace=wrap;rounded=0;fontFamily=Times New Roman;" vertex="1" parent="1">
          <mxGeometry x="192.15517241379308" y="540" width="53.44827586206896" height="28.75" as="geometry" />
        </mxCell>
        <mxCell id="3nSq3ngqs_oeK1MZ0xtk-10" value="cruise" style="text;html=1;align=center;verticalAlign=middle;whiteSpace=wrap;rounded=0;fontFamily=Times New Roman;" vertex="1" parent="1">
          <mxGeometry x="347.1551724137931" y="540" width="53.44827586206896" height="28.75" as="geometry" />
        </mxCell>
        <mxCell id="3nSq3ngqs_oeK1MZ0xtk-11" value="land" style="text;html=1;align=center;verticalAlign=middle;whiteSpace=wrap;rounded=0;fontFamily=Times New Roman;" vertex="1" parent="1">
          <mxGeometry x="250.94827586206895" y="611.875" width="32.068965517241374" height="28.75" as="geometry" />
        </mxCell>
        <mxCell id="3nSq3ngqs_oeK1MZ0xtk-12" value="land" style="text;html=1;align=center;verticalAlign=middle;whiteSpace=wrap;rounded=0;fontFamily=Times New Roman;" vertex="1" parent="1">
          <mxGeometry x="403.81034482758616" y="608.28125" width="32.068965517241374" height="28.75" as="geometry" />
        </mxCell>
        <mxCell id="3nSq3ngqs_oeK1MZ0xtk-13" value="&lt;svg xmlns=&quot;http://www.w3.org/2000/svg&quot; width=&quot;8.513ex&quot; height=&quot;2.388ex&quot; role=&quot;img&quot; viewBox=&quot;0 -805.6 3762.6 1055.6&quot; xmlns:xlink=&quot;http://www.w3.org/1999/xlink&quot; style=&quot;vertical-align: -0.566ex;&quot;&gt;&lt;defs&gt;&lt;path id=&quot;MJX-2-TEX-I-1D443&quot; d=&quot;M287 628Q287 635 230 637Q206 637 199 638T192 648Q192 649 194 659Q200 679 203 681T397 683Q587 682 600 680Q664 669 707 631T751 530Q751 453 685 389Q616 321 507 303Q500 302 402 301H307L277 182Q247 66 247 59Q247 55 248 54T255 50T272 48T305 46H336Q342 37 342 35Q342 19 335 5Q330 0 319 0Q316 0 282 1T182 2Q120 2 87 2T51 1Q33 1 33 11Q33 13 36 25Q40 41 44 43T67 46Q94 46 127 49Q141 52 146 61Q149 65 218 339T287 628ZM645 554Q645 567 643 575T634 597T609 619T560 635Q553 636 480 637Q463 637 445 637T416 636T404 636Q391 635 386 627Q384 621 367 550T332 412T314 344Q314 342 395 342H407H430Q542 342 590 392Q617 419 631 471T645 554Z&quot;&gt;&lt;/path&gt;&lt;path id=&quot;MJX-2-TEX-I-1D461&quot; d=&quot;M26 385Q19 392 19 395Q19 399 22 411T27 425Q29 430 36 430T87 431H140L159 511Q162 522 166 540T173 566T179 586T187 603T197 615T211 624T229 626Q247 625 254 615T261 596Q261 589 252 549T232 470L222 433Q222 431 272 431H323Q330 424 330 420Q330 398 317 385H210L174 240Q135 80 135 68Q135 26 162 26Q197 26 230 60T283 144Q285 150 288 151T303 153H307Q322 153 322 145Q322 142 319 133Q314 117 301 95T267 48T216 6T155 -11Q125 -11 98 4T59 56Q57 64 57 83V101L92 241Q127 382 128 383Q128 385 77 385H26Z&quot;&gt;&lt;/path&gt;&lt;path id=&quot;MJX-2-TEX-N-28&quot; d=&quot;M94 250Q94 319 104 381T127 488T164 576T202 643T244 695T277 729T302 750H315H319Q333 750 333 741Q333 738 316 720T275 667T226 581T184 443T167 250T184 58T225 -81T274 -167T316 -220T333 -241Q333 -250 318 -250H315H302L274 -226Q180 -141 137 -14T94 250Z&quot;&gt;&lt;/path&gt;&lt;path id=&quot;MJX-2-TEX-I-1D465&quot; d=&quot;M52 289Q59 331 106 386T222 442Q257 442 286 424T329 379Q371 442 430 442Q467 442 494 420T522 361Q522 332 508 314T481 292T458 288Q439 288 427 299T415 328Q415 374 465 391Q454 404 425 404Q412 404 406 402Q368 386 350 336Q290 115 290 78Q290 50 306 38T341 26Q378 26 414 59T463 140Q466 150 469 151T485 153H489Q504 153 504 145Q504 144 502 134Q486 77 440 33T333 -11Q263 -11 227 52Q186 -10 133 -10H127Q78 -10 57 16T35 71Q35 103 54 123T99 143Q142 143 142 101Q142 81 130 66T107 46T94 41L91 40Q91 39 97 36T113 29T132 26Q168 26 194 71Q203 87 217 139T245 247T261 313Q266 340 266 352Q266 380 251 392T217 404Q177 404 142 372T93 290Q91 281 88 280T72 278H58Q52 284 52 289Z&quot;&gt;&lt;/path&gt;&lt;path id=&quot;MJX-2-TEX-N-2C&quot; d=&quot;M78 35T78 60T94 103T137 121Q165 121 187 96T210 8Q210 -27 201 -60T180 -117T154 -158T130 -185T117 -194Q113 -194 104 -185T95 -172Q95 -168 106 -156T131 -126T157 -76T173 -3V9L172 8Q170 7 167 6T161 3T152 1T140 0Q113 0 96 17Z&quot;&gt;&lt;/path&gt;&lt;path id=&quot;MJX-2-TEX-I-1D463&quot; d=&quot;M173 380Q173 405 154 405Q130 405 104 376T61 287Q60 286 59 284T58 281T56 279T53 278T49 278T41 278H27Q21 284 21 287Q21 294 29 316T53 368T97 419T160 441Q202 441 225 417T249 361Q249 344 246 335Q246 329 231 291T200 202T182 113Q182 86 187 69Q200 26 250 26Q287 26 319 60T369 139T398 222T409 277Q409 300 401 317T383 343T365 361T357 383Q357 405 376 424T417 443Q436 443 451 425T467 367Q467 340 455 284T418 159T347 40T241 -11Q177 -11 139 22Q102 54 102 117Q102 148 110 181T151 298Q173 362 173 380Z&quot;&gt;&lt;/path&gt;&lt;path id=&quot;MJX-2-TEX-N-29&quot; d=&quot;M60 749L64 750Q69 750 74 750H86L114 726Q208 641 251 514T294 250Q294 182 284 119T261 12T224 -76T186 -143T145 -194T113 -227T90 -246Q87 -249 86 -250H74Q66 -250 63 -250T58 -247T55 -238Q56 -237 66 -225Q221 -64 221 250T66 725Q56 737 55 738Q55 746 60 749Z&quot;&gt;&lt;/path&gt;&lt;/defs&gt;&lt;g stroke=&quot;currentColor&quot; fill=&quot;currentColor&quot; stroke-width=&quot;0&quot; transform=&quot;scale(1,-1)&quot;&gt;&lt;g data-mml-node=&quot;math&quot;&gt;&lt;g data-mml-node=&quot;msup&quot;&gt;&lt;g data-mml-node=&quot;mi&quot;&gt;&lt;use data-c=&quot;1D443&quot; xlink:href=&quot;#MJX-2-TEX-I-1D443&quot;&gt;&lt;/use&gt;&lt;/g&gt;&lt;g data-mml-node=&quot;TeXAtom&quot; transform=&quot;translate(839.5,363) scale(0.707)&quot; data-mjx-texclass=&quot;ORD&quot;&gt;&lt;g data-mml-node=&quot;mi&quot;&gt;&lt;use data-c=&quot;1D461&quot; xlink:href=&quot;#MJX-2-TEX-I-1D461&quot;&gt;&lt;/use&gt;&lt;/g&gt;&lt;/g&gt;&lt;/g&gt;&lt;g data-mml-node=&quot;mo&quot; transform=&quot;translate(1144.7,0)&quot;&gt;&lt;use data-c=&quot;28&quot; xlink:href=&quot;#MJX-2-TEX-N-28&quot;&gt;&lt;/use&gt;&lt;/g&gt;&lt;g data-mml-node=&quot;mi&quot; transform=&quot;translate(1533.7,0)&quot;&gt;&lt;use data-c=&quot;1D465&quot; xlink:href=&quot;#MJX-2-TEX-I-1D465&quot;&gt;&lt;/use&gt;&lt;/g&gt;&lt;g data-mml-node=&quot;mo&quot; transform=&quot;translate(2105.7,0)&quot;&gt;&lt;use data-c=&quot;2C&quot; xlink:href=&quot;#MJX-2-TEX-N-2C&quot;&gt;&lt;/use&gt;&lt;/g&gt;&lt;g data-mml-node=&quot;msup&quot; transform=&quot;translate(2550.4,0)&quot;&gt;&lt;g data-mml-node=&quot;mi&quot;&gt;&lt;use data-c=&quot;1D463&quot; xlink:href=&quot;#MJX-2-TEX-I-1D463&quot;&gt;&lt;/use&gt;&lt;/g&gt;&lt;g data-mml-node=&quot;TeXAtom&quot; transform=&quot;translate(518,363) scale(0.707)&quot; data-mjx-texclass=&quot;ORD&quot;&gt;&lt;g data-mml-node=&quot;mi&quot;&gt;&lt;use data-c=&quot;1D461&quot; xlink:href=&quot;#MJX-2-TEX-I-1D461&quot;&gt;&lt;/use&gt;&lt;/g&gt;&lt;/g&gt;&lt;/g&gt;&lt;g data-mml-node=&quot;mo&quot; transform=&quot;translate(3373.6,0)&quot;&gt;&lt;use data-c=&quot;29&quot; xlink:href=&quot;#MJX-2-TEX-N-29&quot;&gt;&lt;/use&gt;&lt;/g&gt;&lt;/g&gt;&lt;/g&gt;&lt;/svg&gt;" style="text;html=1;align=center;verticalAlign=middle;whiteSpace=wrap;rounded=0;fontSize=10;fontFamily=Times New Roman;" vertex="1" parent="1">
          <mxGeometry x="149.39655172413794" y="640.625" width="42.75862068965517" height="14.375" as="geometry" />
        </mxCell>
        <mxCell id="3nSq3ngqs_oeK1MZ0xtk-17" value="\(P^{c}(x,v^{c})\)" style="text;html=1;align=center;verticalAlign=middle;whiteSpace=wrap;rounded=0;fontFamily=Times New Roman;fontSize=10;" vertex="1" parent="1">
          <mxGeometry x="197.5" y="568.75" width="42.75862068965517" height="14.375" as="geometry" />
        </mxCell>
        <mxCell id="3nSq3ngqs_oeK1MZ0xtk-18" value="\(P^{l}(x,v^{l})\)" style="text;html=1;align=center;verticalAlign=middle;whiteSpace=wrap;rounded=0;fontFamily=Times New Roman;fontSize=10;" vertex="1" parent="1">
          <mxGeometry x="245.60344827586206" y="633.4375" width="42.75862068965517" height="21.5625" as="geometry" />
        </mxCell>
        <mxCell id="3nSq3ngqs_oeK1MZ0xtk-20" value="\(P^{c}(0,v^{c})\)" style="text;html=1;align=center;verticalAlign=middle;whiteSpace=wrap;rounded=0;fontFamily=Times New Roman;fontSize=10;" vertex="1" parent="1">
          <mxGeometry x="352.5" y="568.75" width="42.75862068965517" height="14.375" as="geometry" />
        </mxCell>
        <mxCell id="3nSq3ngqs_oeK1MZ0xtk-21" value="\(P^{l}(0,v^{l})\)" style="text;html=1;align=center;verticalAlign=middle;whiteSpace=wrap;rounded=0;fontFamily=Times New Roman;fontSize=10;" vertex="1" parent="1">
          <mxGeometry x="403.81034482758616" y="633.4375" width="42.75862068965517" height="21.5625" as="geometry" />
        </mxCell>
        <mxCell id="3nSq3ngqs_oeK1MZ0xtk-22" value="&lt;svg style=&quot;vertical-align: -0.566ex;&quot; xmlns:xlink=&quot;http://www.w3.org/1999/xlink&quot; viewBox=&quot;0 -858.6 3751.7 1108.6&quot; role=&quot;img&quot; height=&quot;2.508ex&quot; width=&quot;8.488ex&quot; xmlns=&quot;http://www.w3.org/2000/svg&quot;&gt;&lt;defs&gt;&lt;path d=&quot;M287 628Q287 635 230 637Q206 637 199 638T192 648Q192 649 194 659Q200 679 203 681T397 683Q587 682 600 680Q664 669 707 631T751 530Q751 453 685 389Q616 321 507 303Q500 302 402 301H307L277 182Q247 66 247 59Q247 55 248 54T255 50T272 48T305 46H336Q342 37 342 35Q342 19 335 5Q330 0 319 0Q316 0 282 1T182 2Q120 2 87 2T51 1Q33 1 33 11Q33 13 36 25Q40 41 44 43T67 46Q94 46 127 49Q141 52 146 61Q149 65 218 339T287 628ZM645 554Q645 567 643 575T634 597T609 619T560 635Q553 636 480 637Q463 637 445 637T416 636T404 636Q391 635 386 627Q384 621 367 550T332 412T314 344Q314 342 395 342H407H430Q542 342 590 392Q617 419 631 471T645 554Z&quot; id=&quot;MJX-18-TEX-I-1D443&quot;&gt;&lt;/path&gt;&lt;path d=&quot;M26 385Q19 392 19 395Q19 399 22 411T27 425Q29 430 36 430T87 431H140L159 511Q162 522 166 540T173 566T179 586T187 603T197 615T211 624T229 626Q247 625 254 615T261 596Q261 589 252 549T232 470L222 433Q222 431 272 431H323Q330 424 330 420Q330 398 317 385H210L174 240Q135 80 135 68Q135 26 162 26Q197 26 230 60T283 144Q285 150 288 151T303 153H307Q322 153 322 145Q322 142 319 133Q314 117 301 95T267 48T216 6T155 -11Q125 -11 98 4T59 56Q57 64 57 83V101L92 241Q127 382 128 383Q128 385 77 385H26Z&quot; id=&quot;MJX-18-TEX-I-1D461&quot;&gt;&lt;/path&gt;&lt;path d=&quot;M94 250Q94 319 104 381T127 488T164 576T202 643T244 695T277 729T302 750H315H319Q333 750 333 741Q333 738 316 720T275 667T226 581T184 443T167 250T184 58T225 -81T274 -167T316 -220T333 -241Q333 -250 318 -250H315H302L274 -226Q180 -141 137 -14T94 250Z&quot; id=&quot;MJX-18-TEX-N-28&quot;&gt;&lt;/path&gt;&lt;path d=&quot;M96 585Q152 666 249 666Q297 666 345 640T423 548Q460 465 460 320Q460 165 417 83Q397 41 362 16T301 -15T250 -22Q224 -22 198 -16T137 16T82 83Q39 165 39 320Q39 494 96 585ZM321 597Q291 629 250 629Q208 629 178 597Q153 571 145 525T137 333Q137 175 145 125T181 46Q209 16 250 16Q290 16 318 46Q347 76 354 130T362 333Q362 478 354 524T321 597Z&quot; id=&quot;MJX-18-TEX-N-30&quot;&gt;&lt;/path&gt;&lt;path d=&quot;M78 35T78 60T94 103T137 121Q165 121 187 96T210 8Q210 -27 201 -60T180 -117T154 -158T130 -185T117 -194Q113 -194 104 -185T95 -172Q95 -168 106 -156T131 -126T157 -76T173 -3V9L172 8Q170 7 167 6T161 3T152 1T140 0Q113 0 96 17Z&quot; id=&quot;MJX-18-TEX-N-2C&quot;&gt;&lt;/path&gt;&lt;path d=&quot;M173 380Q173 405 154 405Q130 405 104 376T61 287Q60 286 59 284T58 281T56 279T53 278T49 278T41 278H27Q21 284 21 287Q21 294 29 316T53 368T97 419T160 441Q202 441 225 417T249 361Q249 344 246 335Q246 329 231 291T200 202T182 113Q182 86 187 69Q200 26 250 26Q287 26 319 60T369 139T398 222T409 277Q409 300 401 317T383 343T365 361T357 383Q357 405 376 424T417 443Q436 443 451 425T467 367Q467 340 455 284T418 159T347 40T241 -11Q177 -11 139 22Q102 54 102 117Q102 148 110 181T151 298Q173 362 173 380Z&quot; id=&quot;MJX-18-TEX-I-1D463&quot;&gt;&lt;/path&gt;&lt;path d=&quot;M60 749L64 750Q69 750 74 750H86L114 726Q208 641 251 514T294 250Q294 182 284 119T261 12T224 -76T186 -143T145 -194T113 -227T90 -246Q87 -249 86 -250H74Q66 -250 63 -250T58 -247T55 -238Q56 -237 66 -225Q221 -64 221 250T66 725Q56 737 55 738Q55 746 60 749Z&quot; id=&quot;MJX-18-TEX-N-29&quot;&gt;&lt;/path&gt;&lt;/defs&gt;&lt;g transform=&quot;scale(1,-1)&quot; stroke-width=&quot;0&quot; fill=&quot;currentColor&quot; stroke=&quot;currentColor&quot;&gt;&lt;g data-mml-node=&quot;math&quot;&gt;&lt;g data-mml-node=&quot;msup&quot;&gt;&lt;g data-mml-node=&quot;mi&quot;&gt;&lt;use xlink:href=&quot;#MJX-18-TEX-I-1D443&quot; data-c=&quot;1D443&quot;&gt;&lt;/use&gt;&lt;/g&gt;&lt;g data-mjx-texclass=&quot;ORD&quot; transform=&quot;translate(839.5,363) scale(0.792)&quot; data-mml-node=&quot;TeXAtom&quot;&gt;&lt;g data-mml-node=&quot;mi&quot;&gt;&lt;use xlink:href=&quot;#MJX-18-TEX-I-1D461&quot; data-c=&quot;1D461&quot;&gt;&lt;/use&gt;&lt;/g&gt;&lt;/g&gt;&lt;/g&gt;&lt;g transform=&quot;translate(1175.2,0)&quot; data-mml-node=&quot;mo&quot;&gt;&lt;use xlink:href=&quot;#MJX-18-TEX-N-28&quot; data-c=&quot;28&quot;&gt;&lt;/use&gt;&lt;/g&gt;&lt;g transform=&quot;translate(1564.2,0)&quot; data-mml-node=&quot;mn&quot;&gt;&lt;use xlink:href=&quot;#MJX-18-TEX-N-30&quot; data-c=&quot;30&quot;&gt;&lt;/use&gt;&lt;/g&gt;&lt;g transform=&quot;translate(2064.2,0)&quot; data-mml-node=&quot;mo&quot;&gt;&lt;use xlink:href=&quot;#MJX-18-TEX-N-2C&quot; data-c=&quot;2C&quot;&gt;&lt;/use&gt;&lt;/g&gt;&lt;g transform=&quot;translate(2508.9,0)&quot; data-mml-node=&quot;msup&quot;&gt;&lt;g data-mml-node=&quot;mi&quot;&gt;&lt;use xlink:href=&quot;#MJX-18-TEX-I-1D463&quot; data-c=&quot;1D463&quot;&gt;&lt;/use&gt;&lt;/g&gt;&lt;g data-mjx-texclass=&quot;ORD&quot; transform=&quot;translate(518,363) scale(0.792)&quot; data-mml-node=&quot;TeXAtom&quot;&gt;&lt;g data-mml-node=&quot;mi&quot;&gt;&lt;use xlink:href=&quot;#MJX-18-TEX-I-1D461&quot; data-c=&quot;1D461&quot;&gt;&lt;/use&gt;&lt;/g&gt;&lt;/g&gt;&lt;/g&gt;&lt;g transform=&quot;translate(3362.7,0)&quot; data-mml-node=&quot;mo&quot;&gt;&lt;use xlink:href=&quot;#MJX-18-TEX-N-29&quot; data-c=&quot;29&quot;&gt;&lt;/use&gt;&lt;/g&gt;&lt;/g&gt;&lt;/g&gt;&lt;/svg&gt;" style="text;html=1;align=center;verticalAlign=middle;whiteSpace=wrap;rounded=0;fontFamily=Times New Roman;fontSize=10;" vertex="1" parent="1">
          <mxGeometry x="299.05172413793105" y="637.03125" width="42.75862068965517" height="14.375" as="geometry" />
        </mxCell>
        <mxCell id="3nSq3ngqs_oeK1MZ0xtk-23" value="facility \(j\)" style="text;html=1;align=center;verticalAlign=middle;whiteSpace=wrap;rounded=0;" vertex="1" parent="1">
          <mxGeometry x="120" y="721.5699999999999" width="48.1" height="20" as="geometry" />
        </mxCell>
        <mxCell id="3nSq3ngqs_oeK1MZ0xtk-25" value="facility \(j\)" style="text;html=1;align=center;verticalAlign=middle;whiteSpace=wrap;rounded=0;" vertex="1" parent="1">
          <mxGeometry x="420.65" y="721.5699999999999" width="48.1" height="20" as="geometry" />
        </mxCell>
        <mxCell id="3nSq3ngqs_oeK1MZ0xtk-26" value="customer&amp;nbsp;&amp;nbsp;\(i\)" style="text;html=1;align=center;verticalAlign=middle;whiteSpace=wrap;rounded=0;" vertex="1" parent="1">
          <mxGeometry x="269.66" y="721.5699999999999" width="48.1" height="20" as="geometry" />
        </mxCell>
      </root>
    </mxGraphModel>
  </diagram>
</mxfile>
